<svg width="16" height="16" viewBox="0 0 16 16" fill="none" xmlns="http://www.w3.org/2000/svg">
<g id="Layer_1" clip-path="url(#clip0_147_638)">
<path id="Vector" d="M8 0C3.58333 0 0 3.58039 0 8.00189C0 12.4234 3.58333 16 8 16C12.4167 16 16 12.4196 16 8.00189C16 3.58418 12.4167 0 8 0ZM11.5303 8.42624L7.27273 12.6848C7.03788 12.9197 6.6553 12.9197 6.42045 12.6848L5.61364 11.8816C5.37879 11.6429 5.37879 11.2602 5.61364 11.0253L8.64015 8.00189L5.61364 4.97466C5.37879 4.73976 5.37879 4.35709 5.61364 4.1184L6.42045 3.31518C6.6553 3.08027 7.03788 3.08027 7.27273 3.31518L10.7083 6.7516L11.5303 7.57376C11.7652 7.80867 11.7652 8.19133 11.5303 8.42624Z" fill="#87CA60"/>
</g>
<defs>
<clipPath id="clip0_147_638">
<rect width="16" height="16" fill="white"/>
</clipPath>
</defs>
</svg>
