<svg width="31" height="31" viewBox="0 0 31 31" fill="none" xmlns="http://www.w3.org/2000/svg">
<path d="M27.1913 13.2856H3.80842C3.47633 13.2789 3.14697 13.347 2.84474 13.4848C2.54254 13.6227 2.27519 13.8267 2.06254 14.0819C1.84989 14.3371 1.69738 14.6368 1.6163 14.959C1.53521 15.2811 1.52765 15.6173 1.59415 15.9428L4.02985 28.1214C4.13339 28.6289 4.41166 29.0844 4.81626 29.4079C5.22083 29.7317 5.72613 29.9033 6.24414 29.8929H24.7555C25.2737 29.9033 25.779 29.7317 26.1835 29.4079C26.5881 29.0844 26.8664 28.6289 26.9698 28.1214L29.4055 15.9428C29.472 15.6173 29.4644 15.2811 29.3834 14.959C29.3024 14.6368 29.1498 14.3371 28.9372 14.0819C28.7244 13.8267 28.4572 13.6227 28.1549 13.4848C27.8527 13.347 27.5234 13.2789 27.1913 13.2856Z" stroke="white" stroke-width="2" stroke-linecap="round" stroke-linejoin="round"/>
<path d="M19.9282 5.53571L24.3568 13.2857" stroke="white" stroke-width="2" stroke-linecap="round" stroke-linejoin="round"/>
<path d="M6.64258 13.2857L11.0711 5.53571" stroke="white" stroke-width="2" stroke-linecap="round" stroke-linejoin="round"/>
</svg>
